# xmcd
#
# Track frame offsets: 
#        183
#        12510
#        24360
#        38365
#        52463
#        65735
#        78503
#        91438
#        103428
#        118815
#        132058
#        146738
#        162005
#        177158
#        188368
#        202178
#        215070
#        227980
#        241788
#        254898
#        267853
#        279270
#        290710
#
# Disc length: 4054 seconds
#
# Revision: 4
# Processed by: cddbd v1.5.2PL0 Copyright (c) Steve Scherf et al.
# Submitted via: ExactAudioCopyFreeDBPlugin 1.0
#
DISCID=610fd417
DTITLE=Muddy Waters - Rollin' Stone - Volume 2
DYEAR=1889
DGENRE=Blues
TTITLE0=I Can't Be Satisfied
TTITLE1=Kind Hearted Woman
TTITLE2=Screamin' And Cryin'
TTITLE3=Rollin' Stone
TTITLE4=Walking Blues
TTITLE5=Appealing Blues (Hello Little Girl)
TTITLE6=Lousiana
TTITLE7=Long Distance Call
TTITLE8=Honey Bee
TTITLE9=She Moves Me
TTITLE10=Still A Fool
TTITLE11=They Call Me Muddy Waters
TTITLE12=Standing Around Crying
TTITLE13=She's All Right
TTITLE14=I Want You To Love Me
TTITLE15=I'm Your Hoochie Coochie Man
TTITLE16=I Just Want To Make Love To You
TTITLE17=I'm Ready
TTITLE18=Mannish Boy
TTITLE19=Forty Days And Forty Nights
TTITLE20=Crawlin' Kingsnake
TTITLE21=Just A Dream
TTITLE22=I Feel So Good
EXTD=
EXTT0=
EXTT1=
EXTT2=
EXTT3=
EXTT4=
EXTT5=
EXTT6=
EXTT7=
EXTT8=
EXTT9=
EXTT10=
EXTT11=
EXTT12=
EXTT13=
EXTT14=
EXTT15=
EXTT16=
EXTT17=
EXTT18=
EXTT19=
EXTT20=
EXTT21=
EXTT22=
PLAYORDER=
